HIERARCHY
ROOT Hips
{
	OFFSET 0.00000 0.00000 0.00000
	CHANNELS 6 Xposition Yposition Zposition Zrotation Yrotation Xrotation 
	JOINT LHipJoint
	{
		OFFSET 0 0 0
		CHANNELS 3 Zrotation Yrotation Xrotation
		JOINT LeftHip
		{
			OFFSET 1.42489 -1.84941 0.69647
			CHANNELS 3 Zrotation Yrotation Xrotation
			JOINT LeftKnee
			{
				OFFSET 2.44443 -6.71602 0.00000
				CHANNELS 3 Zrotation Yrotation Xrotation
				JOINT LeftAnkle
				{
					OFFSET 2.62838 -7.22137 0.00000
					CHANNELS 3 Zrotation Yrotation Xrotation
					JOINT LeftToe
					{
						OFFSET 0.24036 -0.66037 2.29953
						CHANNELS 3 Zrotation Yrotation Xrotation
						End Site
						{
							OFFSET 0.00000 -0.00000 1.19837
						}
					}
				}
			}
		}
	}
	JOINT RHipJoint
	{
		OFFSET 0 0 0
		CHANNELS 3 Zrotation Yrotation Xrotation
		JOINT RightHip
		{
			OFFSET -1.37055 -1.84941 0.69647
			CHANNELS 3 Zrotation Yrotation Xrotation
			JOINT RightKnee
			{
				OFFSET -2.54834 -7.00152 0.00000
				CHANNELS 3 Zrotation Yrotation Xrotation
				JOINT RightAnkle
				{
					OFFSET -2.65692 -7.29983 0.00000
					CHANNELS 3 Zrotation Yrotation Xrotation
					JOINT RightToe
					{
						OFFSET -0.18839 -0.51760 2.29390
						CHANNELS 3 Zrotation Yrotation Xrotation
						End Site
						{
							OFFSET -0.00000 -0.00000 1.18261
						}
					}
				}
			}
		}
	}
	JOINT lowerback
	{
		OFFSET 0 0 0
		CHANNELS 3 Zrotation Yrotation Xrotation
		JOINT Chest
		{
			OFFSET 0.05220 2.15489 0.05011
			CHANNELS 3 Zrotation Yrotation Xrotation
			JOINT Chest2
			{
				OFFSET -0.07653 2.14219 -0.05668
				CHANNELS 3 Zrotation Yrotation Xrotation
				JOINT lowerneck
				{
					OFFSET 0 0 0
					CHANNELS 3 Zrotation Yrotation Xrotation
					JOINT Neck
					{
						OFFSET 0.01370 1.58638 0.01447
						CHANNELS 3 Zrotation Yrotation Xrotation
						JOINT Head
						{
							OFFSET 0.23548 1.54190 -0.21747
							CHANNELS 3 Zrotation Yrotation Xrotation
							End Site
							{
								OFFSET 0.07132 1.59823 -0.08163
							}
						}
					}
				}
				JOINT LeftCollar
				{
					OFFSET 0 0 0
					CHANNELS 3 Zrotation Yrotation Xrotation
					JOINT LeftShoulder
					{
						OFFSET 3.47056 1.45357 -0.58896
CHANNELS 3 Zrotation Xrotation Yrotation
						JOINT LeftElbow
						{
OFFSET 0 -5.190690 0.000000
CHANNELS 3 Zrotation Xrotation Yrotation
							JOINT LeftWrist
							{
OFFSET 0 -3.300160 0.000000
CHANNELS 3 Zrotation Xrotation Yrotation
								JOINT lhand
								{
									OFFSET 0 0 0
CHANNELS 3 Zrotation Xrotation Yrotation
									JOINT LFingers
									{
OFFSET 0 -0.707700 0.000000
CHANNELS 3 Zrotation Xrotation Yrotation
										End Site
										{
OFFSET 0 -0.570560 0.000000
										}
									}
								}
								JOINT LThumb
								{
OFFSET 0 0.000000 0.000000
CHANNELS 3 Zrotation Xrotation Yrotation
									End Site
									{
OFFSET 0 -0.579280 0.579280
									}
								}
							}
						}
					}
				}
				JOINT RightCollar
				{
					OFFSET 0 0 0
					CHANNELS 3 Zrotation Yrotation Xrotation
					JOINT RightShoulder
					{
						OFFSET -2.89018 2.03305 -0.26731
CHANNELS 3 Zrotation Xrotation Yrotation
						JOINT RightElbow
						{
OFFSET 0 -5.239240 0.000000
CHANNELS 3 Zrotation Xrotation Yrotation
							JOINT RightWrist
							{
OFFSET 0 -3.329530 0.000000
CHANNELS 3 Zrotation Xrotation Yrotation
								JOINT rhand
								{
									OFFSET 0 0 0
CHANNELS 3 Zrotation Xrotation Yrotation
									JOINT RFingers
									{
OFFSET 0 -0.607410 0.000000
CHANNELS 3 Zrotation Xrotation Yrotation
										End Site
										{
OFFSET 0 -0.489710 0.000000
										}
									}
								}
								JOINT RThumb
								{
OFFSET 0 0.000000 0.000000
CHANNELS 3 Zrotation Xrotation Yrotation
									End Site
									{
OFFSET 0 -0.497190 0.497190
									}
								}
							}
						}
					}
				}
			}
		}
	}
}
MOTION
Frames: 5
Frame Time: 0.008333333333333333
8.242437 15.092371 21.124324 -6.663501 24.511447 7.286321 0.000000 0.000000 0.000000 -7.265864 5.297877 -50.056653 13.228233 18.863020 69.832882 2.645583 -9.738434 -29.296466 0.502370 -4.543835 -12.611987 0.000000 0.000000 0.000000 22.321827 8.309845 -46.195708 -12.945723 -18.762511 68.956922 -2.754410 9.349007 -29.921460 -0.154580 2.533238 -6.981946 6.503424 -2.986821 10.906831 1.229242 -3.218581 4.711600 -1.979029 -1.521927 -1.458657 -5.877472 -7.801514 -0.308355 17.028509 -9.760437 -6.994406 6.064258 -5.125152 -0.800665 0.000000 0.000000 0.000000 37.168827 -20.247856 -39.824147 69.822524 -58.404363 42.619453 15.957171 -29.011006 6.301124 0.000000 0.000000 0.000000 -7.125000 0.000000 0.000000 -7.949127 23.440605 -4.169768 0.000000 0.000000 0.000000 -34.249928 -21.321060 50.723353 -76.176257 -59.265508 -48.057804 -11.414576 -3.856041 7.603693 0.000000 0.000000 0.000000 7.125000 0.000000 0.000000 13.077843 37.439238 2.485080
8.262754 15.097336 21.130386 -6.615321 24.455448 7.355927 0.000000 0.000000 0.000000 -7.401892 5.309554 -50.008374 13.208371 18.856121 69.771352 2.660404 -9.670181 -29.381727 0.506400 -4.561764 -12.662693 0.000000 0.000000 0.000000 22.227227 8.307389 -46.162878 -12.925260 -18.755043 68.893230 -2.767647 9.317471 -29.997201 -0.156382 2.547875 -7.022543 6.586627 -2.952156 10.850784 1.226325 -3.170059 4.722508 -2.037519 -1.495610 -1.416603 -5.838974 -7.809357 -0.297618 16.991738 -9.755921 -7.123932 6.051664 -5.128314 -0.844644 0.000000 0.000000 0.000000 37.055318 -20.293990 -40.013318 69.705308 -58.385060 42.519605 16.073678 -28.997642 6.364338 0.000000 0.000000 0.000000 -7.125000 0.000000 0.000000 -7.861023 23.371516 -4.135278 0.000000 0.000000 0.000000 -34.189174 -21.259896 50.517514 -76.159556 -59.263653 -48.043445 -11.080098 -3.894437 7.653116 0.000000 0.000000 0.000000 7.125000 0.000000 0.000000 13.366187 37.466423 2.533169
8.284969 15.106314 21.132763 -6.593346 24.359781 7.439732 0.000000 0.000000 0.000000 -7.523374 5.330838 -49.973368 13.179738 18.846086 69.682783 2.668951 -9.614021 -29.431345 0.503949 -4.550774 -12.631558 0.000000 0.000000 0.000000 22.145050 8.311810 -46.140307 -12.887909 -18.741324 68.777128 -2.767933 9.344567 -29.998040 -0.155358 2.539692 -6.999634 6.693702 -2.919606 10.814724 1.244005 -3.119458 4.728391 -2.086975 -1.468589 -1.390363 -5.817689 -7.801451 -0.271845 16.917165 -9.732949 -7.246942 6.031372 -5.121513 -0.892809 0.000000 0.000000 0.000000 36.913437 -20.341575 -40.180906 69.568458 -58.362354 42.403048 16.182432 -28.957577 6.443747 0.000000 0.000000 0.000000 -7.125000 0.000000 0.000000 -7.778073 23.285902 -4.106316 0.000000 0.000000 0.000000 -34.196406 -21.260869 50.378203 -76.065404 -59.253424 -47.962552 -10.637910 -3.912557 7.734869 0.000000 0.000000 0.000000 7.125000 0.000000 0.000000 13.750725 37.518245 2.591517
8.307526 15.117234 21.129799 -6.599660 24.243610 7.532555 0.000000 0.000000 0.000000 -7.615669 5.338465 -49.979045 13.156917 18.838075 69.612041 2.670008 -9.566988 -29.438032 0.496358 -4.516740 -12.535295 0.000000 0.000000 0.000000 22.069313 8.336245 -46.159796 -12.848424 -18.726774 68.654070 -2.751657 9.422264 -29.904515 -0.154033 2.529224 -6.970706 6.812016 -2.903926 10.851174 1.291470 -3.081508 4.698872 -2.105950 -1.450817 -1.440507 -5.841793 -7.763003 -0.113433 16.834821 -9.665608 -7.428736 6.025301 -5.098880 -0.983393 0.000000 0.000000 0.000000 36.798234 -20.396625 -40.347339 69.259315 -58.310427 42.139945 16.158031 -28.888432 6.472312 0.000000 0.000000 0.000000 -7.125000 0.000000 0.000000 -7.794906 23.257389 -4.120532 0.000000 0.000000 0.000000 -34.331709 -21.310950 50.398985 -75.823042 -59.226747 -47.754237 -9.984700 -3.896699 7.837565 0.000000 0.000000 0.000000 7.125000 0.000000 0.000000 14.315342 37.576153 2.682384
8.327044 15.125172 21.116198 -6.651081 24.148324 7.603971 0.000000 0.000000 0.000000 -7.629926 5.258729 -50.078587 13.176711 18.845034 69.673466 2.658798 -9.469101 -29.375774 0.494397 -4.508015 -12.510503 0.000000 0.000000 0.000000 21.994251 8.439145 -46.267808 -12.840502 -18.723815 68.629340 -2.712614 9.517494 -29.681268 -0.152071 2.512731 -6.924890 6.935509 -2.947310 11.051762 1.361123 -3.104319 4.669668 -2.089355 -1.465599 -1.583894 -5.815800 -7.616802 0.280581 16.752272 -9.420263 -7.905509 6.036383 -5.008965 -1.222020 0.000000 0.000000 0.000000 36.982279 -20.666221 -40.315425 68.380527 -58.157748 41.392837 15.477485 -28.594751 6.262642 0.000000 0.000000 0.000000 -7.125000 0.000000 0.000000 -8.303712 23.495983 -4.348514 0.000000 0.000000 0.000000 -34.777285 -21.582049 50.650096 -75.304864 -59.168041 -47.309198 -8.490622 -3.958025 8.005400 0.000000 0.000000 0.000000 7.125000 0.000000 0.000000 15.591093 37.639888 2.910293
